<?xml version="1.0" encoding="utf-8"?>
<!-- Generator: Adobe Illustrator 21.0.0, SVG Export Plug-In . SVG Version: 6.00 Build 0)  -->
<svg version="1.1" xmlns="http://www.w3.org/2000/svg" xmlns:xlink="http://www.w3.org/1999/xlink" x="0px" y="0px"
	 viewBox="0 0 49.5 49.5" style="enable-background:new 0 0 49.5 49.5;" xml:space="preserve">
<style type="text/css">
	.st0{display:none;}
	.st1{display:inline;}
	.st2{fill:none;stroke:#000000;stroke-width:0.5559;stroke-miterlimit:10;}
	.st3{fill:none;stroke:#FFFFFF;stroke-width:0.4609;stroke-miterlimit:10;}
	.st4{fill:#FFFFFF;}
	.st5{fill:none;stroke:#FFFFFF;stroke-width:0.5;stroke-miterlimit:10;}
	.st6{fill:none;stroke:#000000;stroke-width:0.5;stroke-miterlimit:10;}
</style>
<g id="Capa_2" class="st0">
	<g class="st1">
		<circle class="st2" cx="24.8" cy="24.8" r="14.9"/>
		<g>
			<g>
				<path class="st2" d="M24,29l0.2,0v2.1c0,1.1-0.7,2.1-1.7,2.6c0,0,0,0-0.1,0l-1.3,0.6c-0.3,0.3-0.5,1.1,0,1.1c0,0,1,0.3,3.7,0.3
					c2.8,0,3.8-0.3,3.8-0.3c0.4,0,0.3-0.8,0-1.1l-1.4-0.6c0,0,0,0,0,0c-1.1-0.5-1.8-1.5-1.8-2.6V29l0.2,0"/>
				<path class="st2" d="M24.1,29c-2.1-0.3-3.8-1.7-4.6-3.7c-0.4-1.2-0.4-2.3-0.2-3.3c0-0.1,0-0.1,0.1-0.2c0.1-0.3,0.2-0.5,0.3-0.7
					c0.8-2.2,1-4.4,1-5.3v-0.9c0-0.5,0.4-1,1-1h6.2c0.5,0,1,0.4,1,1V17c0.1,1,0.3,2.3,0.8,3.7c0.5,0.8,0.8,1.8,0.8,2.8
					c0,2.9-2.2,5.3-5,5.6"/>
			</g>
			<path d="M28.6,20.9c-0.4-1.2-0.5-2.3-0.6-3.1v-1.6c0-0.6-0.4-1-1-1h-4.6c-0.5,0-1,0.5-1,1v0.6c0,0.8-0.1,2.6-0.8,4.5
				c-0.1,0.2-0.2,0.4-0.2,0.6c0,0,0,0,0,0c0,0.1,0,0.2-0.1,0.2c-0.2,1-0.2,2.2,0.4,3.4c0.7,1.3,1.9,2.3,3.4,2.5
				c2.8,0.4,5.1-1.9,5.1-4.7C29.3,22.4,29,21.6,28.6,20.9z"/>
		</g>
	</g>
</g>
<g id="Capa_4" class="st0">
	<g class="st1">
		<circle cx="24.8" cy="24.8" r="14"/>
		<g>
			<g>
				<path class="st3" d="M24,29.6l0.2,0v2c0,1.1-0.7,2-1.6,2.4c0,0,0,0-0.1,0l-1.2,0.5c-0.3,0.3-0.5,1,0,1c0,0,1,0.2,3.5,0.2
					c2.6,0,3.5-0.2,3.5-0.2c0.4,0,0.3-0.7,0-1L27,34c0,0,0,0,0,0c-1-0.4-1.7-1.4-1.7-2.4v-2l0.1,0"/>
				<path class="st3" d="M24.1,29.6c-1.9-0.2-3.6-1.6-4.3-3.5c-0.4-1.1-0.4-2.1-0.2-3.1c0-0.1,0-0.1,0.1-0.2
					c0.1-0.2,0.2-0.5,0.3-0.7c0.8-2.1,0.9-4.1,0.9-5v-0.9c0-0.5,0.4-0.9,0.9-0.9h5.8c0.5,0,0.9,0.4,0.9,0.9v2
					c0.1,0.9,0.3,2.1,0.7,3.4c0.5,0.8,0.7,1.7,0.7,2.6c0,2.7-2.1,5-4.7,5.2"/>
			</g>
			<path class="st4" d="M28.4,22c-0.3-1.1-0.5-2.1-0.6-2.9v-1.5c0-0.5-0.4-1-0.9-1h-4.3c-0.5,0-0.9,0.4-0.9,1v0.5
				c0,0.7-0.1,2.4-0.7,4.2c-0.1,0.2-0.2,0.4-0.2,0.6c0,0,0,0,0,0c0,0.1,0,0.1,0,0.2c-0.2,1-0.2,2,0.4,3.2c0.6,1.3,1.8,2.2,3.2,2.4
				c2.6,0.4,4.8-1.8,4.8-4.4C29,23.4,28.8,22.6,28.4,22z"/>
		</g>
	</g>
</g>
<g id="Capa_6" class="st0">
	<g class="st1">
		<circle class="st4" cx="5.8" cy="24.8" r="1.3"/>
		<circle class="st4" cx="43.5" cy="24.8" r="1.3"/>
		<g>
			<g>
				<path class="st5" d="M24,30l0.2,0v2.1c0,1.1-0.7,2.2-1.8,2.6c0,0,0,0-0.1,0L21,35.4c-0.3,0.3-0.5,1.1,0,1.1c0,0,1.1,0.3,3.8,0.3
					c2.8,0,3.8-0.3,3.8-0.3c0.5,0,0.3-0.8,0-1.1l-1.4-0.6c0,0,0,0,0,0c-1.1-0.5-1.8-1.5-1.8-2.7v-2.1l0.2,0"/>
				<path class="st5" d="M24,30c-2.1-0.3-3.9-1.7-4.6-3.8C19,25.1,19,24,19.2,23c0-0.1,0-0.2,0.1-0.3c0.1-0.3,0.2-0.5,0.3-0.8
					c0.8-2.3,1-4.5,1-5.4v-0.9c0-0.5,0.4-1,1-1h6.3c0.6,0,1,0.5,1,1v2.1c0.1,1,0.3,2.3,0.8,3.7c0.5,0.8,0.8,1.8,0.8,2.9
					c0,3-2.2,5.4-5.1,5.7"/>
			</g>
			<path class="st4" d="M28.7,21.8c-0.4-1.2-0.5-2.3-0.6-3.2V17c0-0.6-0.4-1.1-1-1.1h-4.7c-0.6,0-1,0.5-1,1.1v0.6
				c0,0.8-0.1,2.6-0.8,4.6c-0.1,0.2-0.2,0.4-0.2,0.6c0,0,0,0,0,0c0,0.1-0.1,0.2-0.1,0.2c-0.3,1-0.2,2.2,0.4,3.4
				c0.7,1.4,2,2.4,3.4,2.6c2.8,0.4,5.2-1.9,5.2-4.8C29.3,23.3,29.1,22.5,28.7,21.8z"/>
		</g>
		<circle class="st5" cx="24.8" cy="24.8" r="15.2"/>
		<circle class="st5" cx="24.8" cy="24.8" r="22.5"/>
		<g>
			<path class="st4" d="M5.7,32.5c0,0.1,0,0.2,0,0.3S5.6,32.9,5.5,33c-0.1,0-0.2,0-0.3,0c-0.1,0-0.1-0.1-0.2-0.2l-0.7-2.2
				c0-0.1,0-0.2,0-0.3c0-0.1,0.1-0.1,0.2-0.2l4-1.3c0.1,0,0.2,0,0.3,0C8.9,28.8,9,28.9,9,29c0,0.1,0,0.2,0,0.3
				c0,0.1-0.1,0.2-0.2,0.2L5,30.7l0.1-0.2L5.7,32.5z"/>
			<path class="st4" d="M11.6,35.9l-3.9,1.2c-0.1,0-0.1,0-0.2,0c-0.1,0-0.1-0.1-0.2-0.1c-0.1-0.1-0.1-0.2-0.1-0.2
				c0-0.1,0-0.1,0.1-0.2c0,0,0.1,0,0.1-0.1l4.4-1.4c0.1,0,0.2,0,0.2,0c0.1,0,0.1,0.1,0.2,0.1c0,0.1,0.1,0.1,0.1,0.2
				c0,0.1,0,0.1,0,0.2l-2.1,4.1c0,0-0.1,0.1-0.1,0.1c-0.1,0.1-0.2,0.1-0.3,0.1c-0.1,0-0.2,0-0.2-0.1c0-0.1-0.1-0.1-0.1-0.2
				c0-0.1,0-0.1,0-0.2l1.9-3.6L11.6,35.9z M8.7,36.7l0.7-0.2l1.3,1.5l-0.4,0.5L8.7,36.7z"/>
			<path class="st4" d="M20.7,40.5c0.4,0.1,0.7,0.3,0.9,0.6c0.2,0.3,0.2,0.6,0.1,1c-0.1,0.2-0.2,0.4-0.3,0.5
				c-0.1,0.1-0.3,0.2-0.5,0.3c-0.2,0-0.5,0-0.7-0.1l0.1-0.2c0.1,0,0.3,0.1,0.5,0.2s0.3,0.2,0.4,0.3s0.2,0.3,0.3,0.5s0,0.4,0,0.7
				c-0.1,0.3-0.2,0.5-0.3,0.6c-0.1,0.2-0.3,0.3-0.5,0.3s-0.4,0.1-0.6,0.1c-0.2,0-0.4,0-0.5-0.1l-1.7-0.5c-0.1,0-0.2-0.1-0.2-0.2
				c0-0.1-0.1-0.2,0-0.3l1.2-4c0-0.1,0.1-0.2,0.2-0.2c0.1,0,0.2-0.1,0.3,0L20.7,40.5z M19.9,43.1l-1.3-0.4l0.1,0l-0.5,1.6l0-0.1
				l1.4,0.4c0.2,0.1,0.4,0.1,0.6,0c0.2-0.1,0.3-0.2,0.4-0.5c0.1-0.2,0.1-0.4,0-0.5c-0.1-0.1-0.1-0.2-0.3-0.3
				C20.1,43.2,20,43.1,19.9,43.1z M20.4,41.2L19,40.8l0.1-0.1l-0.4,1.4L18.7,42l1.3,0.4c0.2,0,0.3,0,0.5,0c0.2-0.1,0.3-0.2,0.3-0.4
				c0.1-0.2,0-0.4,0-0.5C20.7,41.3,20.6,41.2,20.4,41.2z"/>
			<path class="st4" d="M25.5,45.6c0,0.1,0,0.2-0.1,0.3c-0.1,0.1-0.2,0.1-0.3,0.1c-0.1,0-0.2,0-0.3-0.1c-0.1-0.1-0.1-0.2-0.1-0.3
				l-0.1-4.2c0-0.1,0-0.2,0.1-0.3c0.1-0.1,0.2-0.1,0.3-0.1c0.1,0,0.2,0,0.3,0.1c0.1,0.1,0.1,0.2,0.1,0.3L25.5,45.6z"/>
			<path class="st4" d="M30.1,45.3c-0.1,0-0.2,0-0.3,0c-0.1,0-0.2-0.1-0.2-0.2l-1.3-4c0-0.1,0-0.2,0-0.3s0.1-0.1,0.2-0.2l1.9-0.6
				c0.2-0.1,0.5-0.1,0.7,0c0.2,0.1,0.5,0.2,0.6,0.3s0.3,0.4,0.4,0.6c0.1,0.2,0.1,0.4,0.1,0.5s-0.1,0.4-0.1,0.5
				c-0.1,0.2-0.2,0.3-0.3,0.4l-0.1-0.1c0.2,0,0.3,0,0.4,0.1c0.1,0.1,0.2,0.1,0.3,0.2c0.1,0.1,0.2,0.2,0.2,0.4
				c0.1,0.1,0.1,0.2,0.1,0.3s0.1,0.2,0.1,0.2c0,0.1,0.1,0.1,0.2,0.1c0.1,0,0.2,0.1,0.2,0.2c0,0.1,0.1,0.2,0,0.3
				c0,0.1-0.1,0.1-0.1,0.2s-0.1,0.1-0.2,0.1c-0.1,0-0.1,0-0.2,0c-0.1,0-0.2-0.1-0.3-0.1c-0.1-0.1-0.2-0.2-0.3-0.3
				c-0.1-0.1-0.2-0.3-0.3-0.6c0-0.1-0.1-0.2-0.1-0.3C31.8,43,31.7,43,31.6,43s-0.2,0-0.3,0c-0.1,0-0.2,0-0.3,0.1l-1.4,0.5l0-0.2
				l0.5,1.6c0,0.1,0,0.2,0,0.3S30.2,45.3,30.1,45.3z M29.5,42.9l1.6-0.5c0.1,0,0.2-0.1,0.3-0.2c0.1-0.1,0.1-0.2,0.1-0.4
				c0-0.2,0-0.3-0.1-0.5c-0.1-0.2-0.2-0.4-0.4-0.5s-0.3-0.1-0.5-0.1L29,41.2l0-0.2l0.6,2L29.5,42.9z"/>
			<path class="st4" d="M38,41.3c-0.1,0.1-0.2,0.1-0.3,0.1s-0.2,0-0.3-0.1l-2.8-3.1c-0.1-0.1-0.1-0.2-0.1-0.3c0-0.1,0-0.2,0.1-0.2
				l1.5-1.3c0.2-0.2,0.4-0.3,0.6-0.3s0.5,0,0.7,0c0.2,0.1,0.5,0.2,0.6,0.4c0.1,0.1,0.2,0.3,0.3,0.5c0.1,0.2,0.1,0.4,0.1,0.5
				c0,0.2,0,0.3-0.1,0.5l-0.1,0c0.1-0.1,0.3-0.1,0.4-0.1s0.3,0,0.4,0.1c0.1,0.1,0.3,0.1,0.4,0.3c0.1,0.1,0.2,0.2,0.3,0.2
				s0.1,0.1,0.2,0.1c0.1,0,0.1,0,0.2,0c0.1,0,0.2,0,0.3,0c0.1,0.1,0.1,0.1,0.1,0.2c0,0.1,0,0.1,0,0.2c0,0.1-0.1,0.1-0.1,0.1
				c-0.1,0-0.1,0.1-0.2,0.1c-0.1,0-0.2,0-0.3,0s-0.2-0.1-0.4-0.1c-0.1-0.1-0.3-0.2-0.5-0.4c-0.1-0.1-0.2-0.1-0.2-0.2
				c-0.1,0-0.2-0.1-0.3,0c-0.1,0-0.2,0-0.3,0.1s-0.2,0.1-0.2,0.2l-1.1,1l0-0.2l1.1,1.2c0.1,0.1,0.1,0.2,0.1,0.2
				C38.1,41.2,38.1,41.2,38,41.3z M36.5,39.3l1.2-1.1c0.1-0.1,0.1-0.2,0.1-0.3s0-0.3,0-0.4s-0.1-0.3-0.3-0.4
				c-0.2-0.2-0.3-0.3-0.5-0.3c-0.2,0-0.4,0-0.5,0.2L35.4,38l-0.1-0.2l1.4,1.5L36.5,39.3z"/>
			<path class="st4" d="M40.5,31.7l2.8,3c0.1,0.1,0.1,0.1,0.1,0.2s0,0.1,0,0.2c0,0.1-0.1,0.2-0.2,0.2s-0.2,0-0.2,0
				c0,0-0.1,0-0.1-0.1l-3.2-3.4c-0.1-0.1-0.1-0.1-0.1-0.2c0-0.1,0-0.1,0-0.2c0-0.1,0.1-0.1,0.1-0.2c0.1,0,0.1-0.1,0.2-0.1l4.6,0.1
				c0.1,0,0.1,0,0.1,0c0.1,0,0.2,0.1,0.2,0.2s0,0.2,0,0.2c0,0.1-0.1,0.1-0.1,0.1c-0.1,0-0.1,0.1-0.2,0l-4.1-0.1L40.5,31.7z M42.5,34
				L42,33.4l0.8-1.8l0.7,0.2L42.5,34z"/>
		</g>
		<g>
			<path class="st4" d="M8.8,12.4l2,3.6c0,0.1,0.1,0.1,0.1,0.2c0,0.1,0,0.1-0.1,0.2c-0.1,0.1-0.1,0.1-0.2,0.1s-0.2,0-0.2-0.1
				c0,0-0.1,0-0.1-0.1l-2.3-4C8,12.2,7.9,12.1,8,12C8,12,8,11.9,8,11.8c0-0.1,0.1-0.1,0.2-0.1s0.1,0,0.2,0l4.4,1.2
				c0,0,0.1,0,0.1,0.1c0.1,0.1,0.1,0.1,0.1,0.2c0,0.1,0,0.2-0.1,0.2c0,0.1-0.1,0.1-0.2,0.1c-0.1,0-0.1,0-0.2,0l-3.9-1L8.8,12.4z
				 M10.2,15.1l-0.3-0.7l1.2-1.6l0.6,0.3L10.2,15.1z"/>
			<path class="st4" d="M16.2,11.1c-0.3,0.2-0.6,0.3-0.9,0.4c-0.3,0.1-0.7,0.1-1,0c-0.3-0.1-0.6-0.2-0.9-0.4
				c-0.3-0.2-0.5-0.4-0.7-0.7c-0.2-0.3-0.3-0.6-0.4-0.9c-0.1-0.3-0.1-0.6,0-1s0.2-0.6,0.4-0.9s0.4-0.5,0.7-0.7
				c0.2-0.1,0.4-0.2,0.6-0.3c0.2-0.1,0.4-0.1,0.6-0.1c0.1,0,0.1,0,0.2,0c0.1,0,0.1,0.1,0.1,0.1c0.1,0.1,0.1,0.2,0.1,0.3
				c0,0.1-0.1,0.2-0.1,0.2c0,0-0.1,0-0.1,0s-0.1,0-0.1,0c-0.1,0-0.3,0.1-0.4,0.1s-0.3,0.1-0.4,0.2c-0.3,0.2-0.5,0.4-0.6,0.7
				C13,8.5,12.9,8.8,13,9.1c0,0.3,0.1,0.6,0.3,0.9c0.2,0.3,0.4,0.5,0.7,0.6c0.3,0.1,0.6,0.2,0.9,0.2c0.3,0,0.6-0.1,0.9-0.3
				c0.1-0.1,0.3-0.2,0.4-0.3c0.1-0.1,0.2-0.3,0.3-0.4l0.1,0.2l-0.7-1.1l0.1,0l-0.8,0.5c-0.1,0.1-0.2,0.1-0.3,0.1
				c-0.1,0-0.2-0.1-0.2-0.2c-0.1-0.1-0.1-0.2-0.1-0.3s0.1-0.2,0.2-0.2l1-0.7C15.9,8.1,16,8.1,16,8.1c0.1,0,0.2,0.1,0.2,0.2l0.9,1.3
				c0,0.1,0.1,0.1,0.1,0.2c0,0.1,0,0.1,0,0.2c-0.1,0.2-0.2,0.4-0.4,0.6C16.6,10.8,16.4,11,16.2,11.1z"/>
			<path class="st4" d="M21.1,3.9c0.1,0,0.2,0,0.3,0s0.1,0.1,0.2,0.2l0.6,2.6c0.1,0.4,0.1,0.7,0,1c-0.1,0.3-0.2,0.6-0.5,0.8
				c-0.2,0.2-0.5,0.4-0.9,0.5c-0.4,0.1-0.7,0.1-1,0C19.5,9,19.2,8.8,19,8.6c-0.2-0.2-0.4-0.5-0.5-0.9l-0.6-2.6c0-0.1,0-0.2,0-0.3
				c0.1-0.1,0.1-0.1,0.2-0.2c0.1,0,0.2,0,0.3,0c0.1,0,0.1,0.1,0.2,0.2l0.6,2.6c0.1,0.2,0.2,0.4,0.3,0.6c0.2,0.2,0.3,0.3,0.5,0.3
				s0.4,0.1,0.6,0c0.2-0.1,0.4-0.2,0.6-0.3c0.2-0.1,0.3-0.3,0.3-0.5s0.1-0.4,0-0.7l-0.6-2.6c0-0.1,0-0.2,0-0.3C21,4,21,3.9,21.1,3.9
				z"/>
			<path class="st4" d="M26.4,4.6l-1.9,3.6c0,0.1-0.1,0.1-0.1,0.2c-0.1,0-0.1,0.1-0.2,0c-0.1,0-0.2,0-0.2-0.1c0-0.1-0.1-0.1-0.1-0.2
				c0,0,0-0.1,0-0.1l2.1-4.1c0-0.1,0.1-0.1,0.2-0.2c0.1,0,0.1,0,0.2,0c0.1,0,0.1,0,0.2,0.1c0.1,0,0.1,0.1,0.1,0.2l1.4,4.4
				c0,0,0,0.1,0,0.1c0,0.1,0,0.2-0.1,0.2s-0.2,0.1-0.2,0.1c-0.1,0-0.1,0-0.2-0.1s-0.1-0.1-0.1-0.2l-1.3-3.9L26.4,4.6z M24.9,7.3
				l0.4-0.6l2,0.2l0.1,0.7L24.9,7.3z"/>
			<path class="st4" d="M34.8,6.2c0.1,0,0.1,0.1,0.2,0.2c0,0.1,0,0.2,0,0.2l-1.7,3.9c0,0.1-0.1,0.2-0.2,0.2c-0.1,0-0.2,0-0.3,0
				c0,0-0.1,0-0.1-0.1c0,0-0.1-0.1-0.1-0.1l-1.1-4.6l0.2,0l-1.5,3.3c0,0.1-0.1,0.1-0.2,0.2c-0.1,0-0.2,0-0.2,0
				c-0.1,0-0.1-0.1-0.2-0.2c0-0.1,0-0.2,0-0.2L31.3,5c0-0.1,0.1-0.2,0.2-0.2s0.2,0,0.3,0c0,0,0.1,0.1,0.1,0.1C32,4.9,32,5,32,5
				l1.1,4.5l-0.1,0l1.4-3.2c0-0.1,0.1-0.1,0.2-0.2C34.7,6.1,34.8,6.1,34.8,6.2z"/>
			<path class="st4" d="M35.8,12.9c-0.1-0.1-0.1-0.2-0.1-0.3c0-0.1,0-0.2,0.1-0.3l2.9-3.1l0.5,0.5l-2.9,3.1C36.2,13,36.1,13,36,13
				C35.9,13,35.9,13,35.8,12.9z M37.5,8.7c-0.1-0.1-0.1-0.1-0.1-0.2c0-0.1,0-0.2,0.1-0.3c0.1-0.1,0.1-0.1,0.2-0.1
				c0.1,0,0.2,0,0.2,0.1l2.3,2.2c0.1,0.1,0.1,0.1,0.1,0.2c0,0.1,0,0.2-0.1,0.2C40.2,11,40.2,11,40.1,11c-0.1,0-0.2,0-0.2-0.1
				L37.5,8.7z"/>
			<path class="st4" d="M42.5,13.3l1.2,2.1c0,0.1,0.1,0.2,0,0.3c0,0.1-0.1,0.2-0.2,0.2s-0.2,0.1-0.3,0c-0.1,0-0.2-0.1-0.2-0.2
				L42,13.9l0.1,0l-1.4,0.8l0-0.1l0.9,1.6c0,0.1,0.1,0.2,0,0.3c0,0.1-0.1,0.2-0.2,0.2c-0.1,0-0.2,0.1-0.3,0c-0.1,0-0.2-0.1-0.2-0.2
				l-0.9-1.5l0.1,0L39,15.7l0-0.1l1,1.8c0,0.1,0.1,0.2,0,0.3s-0.1,0.2-0.2,0.2c-0.1,0-0.2,0.1-0.3,0c-0.1,0-0.2-0.1-0.2-0.2
				l-1.2-2.1c0-0.1-0.1-0.2,0-0.3c0-0.1,0.1-0.2,0.2-0.2l3.6-2.1c0.1-0.1,0.2-0.1,0.3,0C42.3,13.1,42.4,13.2,42.5,13.3z"/>
		</g>
	</g>
</g>
<g id="Capa_5">
	<g>
		<circle cx="6" cy="24.8" r="1.3"/>
		<circle cx="43.7" cy="24.8" r="1.3"/>
		<g>
			<g>
				<path class="st6" d="M24,30l0.2,0v2.1c0,1.1-0.7,2.2-1.8,2.6c0,0,0,0-0.1,0L21,35.4c-0.3,0.3-0.5,1.1,0,1.1c0,0,1.1,0.3,3.8,0.3
					c2.8,0,3.8-0.3,3.8-0.3c0.5,0,0.3-0.8,0-1.1l-1.4-0.6c0,0,0,0,0,0c-1.1-0.5-1.8-1.5-1.8-2.7v-2.1l0.2,0"/>
				<path class="st6" d="M24,30c-2.1-0.3-3.9-1.7-4.6-3.8C19,25.1,19,24,19.2,23c0-0.1,0-0.2,0.1-0.3c0.1-0.3,0.2-0.5,0.3-0.8
					c0.8-2.3,1-4.5,1-5.4v-0.9c0-0.5,0.4-1,1-1h6.3c0.6,0,1,0.5,1,1v2.1c0.1,1,0.3,2.3,0.8,3.7c0.5,0.8,0.8,1.8,0.8,2.9
					c0,3-2.2,5.4-5.1,5.7"/>
			</g>
			<path d="M28.7,21.8c-0.4-1.2-0.5-2.3-0.6-3.2V17c0-0.6-0.4-1.1-1-1.1h-4.7c-0.6,0-1,0.5-1,1.1v0.6c0,0.8-0.1,2.6-0.8,4.6
				c-0.1,0.2-0.2,0.4-0.2,0.6c0,0,0,0,0,0c0,0.1-0.1,0.2-0.1,0.2c-0.3,1-0.2,2.2,0.4,3.4c0.7,1.4,2,2.4,3.4,2.6
				c2.8,0.4,5.2-1.9,5.2-4.8C29.3,23.3,29.1,22.5,28.7,21.8z"/>
		</g>
		<circle class="st6" cx="24.8" cy="24.8" r="15.2"/>
		<circle class="st6" cx="24.8" cy="24.8" r="22.5"/>
		<g>
			<path d="M5.7,32.5c0,0.1,0,0.2,0,0.3S5.6,32.9,5.5,33c-0.1,0-0.2,0-0.3,0c-0.1,0-0.1-0.1-0.2-0.2l-0.7-2.2c0-0.1,0-0.2,0-0.3
				c0-0.1,0.1-0.1,0.2-0.2l4-1.3c0.1,0,0.2,0,0.3,0C8.9,28.8,9,28.9,9,29c0,0.1,0,0.2,0,0.3c0,0.1-0.1,0.2-0.2,0.2L5,30.7l0.1-0.2
				L5.7,32.5z"/>
			<path d="M11.6,35.9l-3.9,1.2c-0.1,0-0.1,0-0.2,0c-0.1,0-0.1-0.1-0.2-0.1c-0.1-0.1-0.1-0.2-0.1-0.2c0-0.1,0-0.1,0.1-0.2
				c0,0,0.1,0,0.1-0.1l4.4-1.4c0.1,0,0.2,0,0.2,0c0.1,0,0.1,0.1,0.2,0.1c0,0.1,0.1,0.1,0.1,0.2c0,0.1,0,0.1,0,0.2l-2.1,4.1
				c0,0-0.1,0.1-0.1,0.1c-0.1,0.1-0.2,0.1-0.3,0.1c-0.1,0-0.2,0-0.2-0.1c0-0.1-0.1-0.1-0.1-0.2c0-0.1,0-0.1,0-0.2l1.9-3.6L11.6,35.9
				z M8.7,36.7l0.7-0.2l1.3,1.5l-0.4,0.5L8.7,36.7z"/>
			<path d="M20.7,40.5c0.4,0.1,0.7,0.3,0.9,0.6c0.2,0.3,0.2,0.6,0.1,1c-0.1,0.2-0.2,0.4-0.3,0.5c-0.1,0.1-0.3,0.2-0.5,0.3
				c-0.2,0-0.5,0-0.7-0.1l0.1-0.2c0.1,0,0.3,0.1,0.5,0.2s0.3,0.2,0.4,0.3s0.2,0.3,0.3,0.5s0,0.4,0,0.7c-0.1,0.3-0.2,0.5-0.3,0.6
				c-0.1,0.2-0.3,0.3-0.5,0.3s-0.4,0.1-0.6,0.1c-0.2,0-0.4,0-0.5-0.1l-1.7-0.5c-0.1,0-0.2-0.1-0.2-0.2c0-0.1-0.1-0.2,0-0.3l1.2-4
				c0-0.1,0.1-0.2,0.2-0.2c0.1,0,0.2-0.1,0.3,0L20.7,40.5z M19.9,43.1l-1.3-0.4l0.1,0l-0.5,1.6l0-0.1l1.4,0.4c0.2,0.1,0.4,0.1,0.6,0
				c0.2-0.1,0.3-0.2,0.4-0.5c0.1-0.2,0.1-0.4,0-0.5c-0.1-0.1-0.1-0.2-0.3-0.3C20.1,43.2,20,43.1,19.9,43.1z M20.4,41.2L19,40.8
				l0.1-0.1l-0.4,1.4L18.7,42l1.3,0.4c0.2,0,0.3,0,0.5,0c0.2-0.1,0.3-0.2,0.3-0.4c0.1-0.2,0-0.4,0-0.5
				C20.7,41.3,20.6,41.2,20.4,41.2z"/>
			<path d="M25.5,45.6c0,0.1,0,0.2-0.1,0.3c-0.1,0.1-0.2,0.1-0.3,0.1c-0.1,0-0.2,0-0.3-0.1c-0.1-0.1-0.1-0.2-0.1-0.3l-0.1-4.2
				c0-0.1,0-0.2,0.1-0.3c0.1-0.1,0.2-0.1,0.3-0.1c0.1,0,0.2,0,0.3,0.1c0.1,0.1,0.1,0.2,0.1,0.3L25.5,45.6z"/>
			<path d="M30.1,45.3c-0.1,0-0.2,0-0.3,0c-0.1,0-0.2-0.1-0.2-0.2l-1.3-4c0-0.1,0-0.2,0-0.3s0.1-0.1,0.2-0.2l1.9-0.6
				c0.2-0.1,0.5-0.1,0.7,0c0.2,0.1,0.5,0.2,0.6,0.3s0.3,0.4,0.4,0.6c0.1,0.2,0.1,0.4,0.1,0.5s-0.1,0.4-0.1,0.5
				c-0.1,0.2-0.2,0.3-0.3,0.4l-0.1-0.1c0.2,0,0.3,0,0.4,0.1s0.2,0.1,0.3,0.2c0.1,0.1,0.2,0.2,0.2,0.4c0.1,0.1,0.1,0.2,0.1,0.3
				s0.1,0.2,0.1,0.2c0,0.1,0.1,0.1,0.2,0.1c0.1,0,0.2,0.1,0.2,0.2c0,0.1,0.1,0.2,0,0.3c0,0.1-0.1,0.1-0.1,0.2s-0.1,0.1-0.2,0.1
				c-0.1,0-0.1,0-0.2,0c-0.1,0-0.2-0.1-0.3-0.1c-0.1-0.1-0.2-0.2-0.3-0.3c-0.1-0.1-0.2-0.3-0.3-0.6c0-0.1-0.1-0.2-0.1-0.3
				C31.8,43,31.7,43,31.6,43s-0.2,0-0.3,0c-0.1,0-0.2,0-0.3,0.1l-1.4,0.5l0-0.2l0.5,1.6c0,0.1,0,0.2,0,0.3S30.2,45.3,30.1,45.3z
				 M29.5,42.9l1.6-0.5c0.1,0,0.2-0.1,0.3-0.2c0.1-0.1,0.1-0.2,0.1-0.4c0-0.2,0-0.3-0.1-0.5c-0.1-0.2-0.2-0.4-0.4-0.5
				s-0.3-0.1-0.5-0.1L29,41.2l0-0.2l0.6,2L29.5,42.9z"/>
			<path d="M38,41.3c-0.1,0.1-0.2,0.1-0.3,0.1s-0.2,0-0.3-0.1l-2.8-3.1c-0.1-0.1-0.1-0.2-0.1-0.3c0-0.1,0-0.2,0.1-0.2l1.5-1.3
				c0.2-0.2,0.4-0.3,0.6-0.3s0.5,0,0.7,0c0.2,0.1,0.5,0.2,0.6,0.4c0.1,0.1,0.2,0.3,0.3,0.5c0.1,0.2,0.1,0.4,0.1,0.5
				c0,0.2,0,0.3-0.1,0.5l-0.1,0c0.1-0.1,0.3-0.1,0.4-0.1s0.3,0,0.4,0.1c0.1,0.1,0.3,0.1,0.4,0.3c0.1,0.1,0.2,0.2,0.3,0.2
				s0.1,0.1,0.2,0.1c0.1,0,0.1,0,0.2,0c0.1,0,0.2,0,0.3,0c0.1,0.1,0.1,0.1,0.1,0.2c0,0.1,0,0.1,0,0.2c0,0.1-0.1,0.1-0.1,0.1
				c-0.1,0-0.1,0.1-0.2,0.1c-0.1,0-0.2,0-0.3,0s-0.2-0.1-0.4-0.1c-0.1-0.1-0.3-0.2-0.5-0.4c-0.1-0.1-0.2-0.1-0.2-0.2
				c-0.1,0-0.2-0.1-0.3,0c-0.1,0-0.2,0-0.3,0.1s-0.2,0.1-0.2,0.2l-1.1,1l0-0.2l1.1,1.2c0.1,0.1,0.1,0.2,0.1,0.2
				C38.1,41.2,38.1,41.2,38,41.3z M36.5,39.3l1.2-1.1c0.1-0.1,0.1-0.2,0.1-0.3s0-0.3,0-0.4s-0.1-0.3-0.3-0.4
				c-0.2-0.2-0.3-0.3-0.5-0.3c-0.2,0-0.4,0-0.5,0.2L35.4,38l-0.1-0.2l1.4,1.5L36.5,39.3z"/>
			<path d="M40.5,31.7l2.8,3c0.1,0.1,0.1,0.1,0.1,0.2s0,0.1,0,0.2c0,0.1-0.1,0.2-0.2,0.2s-0.2,0-0.2,0c0,0-0.1,0-0.1-0.1l-3.2-3.4
				c-0.1-0.1-0.1-0.1-0.1-0.2c0-0.1,0-0.1,0-0.2c0-0.1,0.1-0.1,0.1-0.2c0.1,0,0.1-0.1,0.2-0.1l4.6,0.1c0.1,0,0.1,0,0.1,0
				c0.1,0,0.2,0.1,0.2,0.2s0,0.2,0,0.2c0,0.1-0.1,0.1-0.1,0.1c-0.1,0-0.1,0.1-0.2,0l-4.1-0.1L40.5,31.7z M42.5,34L42,33.4l0.8-1.8
				l0.7,0.2L42.5,34z"/>
		</g>
		<g>
			<path d="M8.8,12.4l2,3.6c0,0.1,0.1,0.1,0.1,0.2c0,0.1,0,0.1-0.1,0.2c-0.1,0.1-0.1,0.1-0.2,0.1s-0.2,0-0.2-0.1c0,0-0.1,0-0.1-0.1
				l-2.3-4C8,12.2,7.9,12.1,8,12C8,12,8,11.9,8,11.8c0-0.1,0.1-0.1,0.2-0.1s0.1,0,0.2,0l4.4,1.2c0,0,0.1,0,0.1,0.1
				c0.1,0.1,0.1,0.1,0.1,0.2c0,0.1,0,0.2-0.1,0.2c0,0.1-0.1,0.1-0.2,0.1c-0.1,0-0.1,0-0.2,0l-3.9-1L8.8,12.4z M10.2,15.1l-0.3-0.7
				l1.2-1.6l0.6,0.3L10.2,15.1z"/>
			<path d="M16.2,11.1c-0.3,0.2-0.6,0.3-0.9,0.4c-0.3,0.1-0.7,0.1-1,0c-0.3-0.1-0.6-0.2-0.9-0.4c-0.3-0.2-0.5-0.4-0.7-0.7
				c-0.2-0.3-0.3-0.6-0.4-0.9c-0.1-0.3-0.1-0.6,0-1s0.2-0.6,0.4-0.9s0.4-0.5,0.7-0.7c0.2-0.1,0.4-0.2,0.6-0.3
				c0.2-0.1,0.4-0.1,0.6-0.1c0.1,0,0.1,0,0.2,0c0.1,0,0.1,0.1,0.1,0.1c0.1,0.1,0.1,0.2,0.1,0.3c0,0.1-0.1,0.2-0.1,0.2
				c0,0-0.1,0-0.1,0s-0.1,0-0.1,0c-0.1,0-0.3,0.1-0.4,0.1s-0.3,0.1-0.4,0.2c-0.3,0.2-0.5,0.4-0.6,0.7C13,8.5,12.9,8.8,13,9.1
				c0,0.3,0.1,0.6,0.3,0.9c0.2,0.3,0.4,0.5,0.7,0.6c0.3,0.1,0.6,0.2,0.9,0.2c0.3,0,0.6-0.1,0.9-0.3c0.1-0.1,0.3-0.2,0.4-0.3
				c0.1-0.1,0.2-0.3,0.3-0.4l0.1,0.2l-0.7-1.1l0.1,0l-0.8,0.5c-0.1,0.1-0.2,0.1-0.3,0.1c-0.1,0-0.2-0.1-0.2-0.2
				c-0.1-0.1-0.1-0.2-0.1-0.3s0.1-0.2,0.2-0.2l1-0.7C15.9,8.1,16,8.1,16,8.1c0.1,0,0.2,0.1,0.2,0.2l0.9,1.3c0,0.1,0.1,0.1,0.1,0.2
				c0,0.1,0,0.1,0,0.2c-0.1,0.2-0.2,0.4-0.4,0.6C16.6,10.8,16.4,11,16.2,11.1z"/>
			<path d="M21.1,3.9c0.1,0,0.2,0,0.3,0s0.1,0.1,0.2,0.2l0.6,2.6c0.1,0.4,0.1,0.7,0,1c-0.1,0.3-0.2,0.6-0.5,0.8
				c-0.2,0.2-0.5,0.4-0.9,0.5c-0.4,0.1-0.7,0.1-1,0C19.5,9,19.2,8.8,19,8.6c-0.2-0.2-0.4-0.5-0.5-0.9l-0.6-2.6c0-0.1,0-0.2,0-0.3
				c0.1-0.1,0.1-0.1,0.2-0.2c0.1,0,0.2,0,0.3,0c0.1,0,0.1,0.1,0.2,0.2l0.6,2.6c0.1,0.2,0.2,0.4,0.3,0.6c0.2,0.2,0.3,0.3,0.5,0.3
				s0.4,0.1,0.6,0c0.2-0.1,0.4-0.2,0.6-0.3c0.2-0.1,0.3-0.3,0.3-0.5s0.1-0.4,0-0.7l-0.6-2.6c0-0.1,0-0.2,0-0.3C21,4,21,3.9,21.1,3.9
				z"/>
			<path d="M26.4,4.6l-1.9,3.6c0,0.1-0.1,0.1-0.1,0.2c-0.1,0-0.1,0.1-0.2,0c-0.1,0-0.2,0-0.2-0.1c0-0.1-0.1-0.1-0.1-0.2
				c0,0,0-0.1,0-0.1l2.1-4.1c0-0.1,0.1-0.1,0.2-0.2c0.1,0,0.1,0,0.2,0c0.1,0,0.1,0,0.2,0.1c0.1,0,0.1,0.1,0.1,0.2l1.4,4.4
				c0,0,0,0.1,0,0.1c0,0.1,0,0.2-0.1,0.2s-0.2,0.1-0.2,0.1c-0.1,0-0.1,0-0.2-0.1s-0.1-0.1-0.1-0.2l-1.3-3.9L26.4,4.6z M24.9,7.3
				l0.4-0.6l2,0.2l0.1,0.7L24.9,7.3z"/>
			<path d="M34.8,6.2c0.1,0,0.1,0.1,0.2,0.2c0,0.1,0,0.2,0,0.2l-1.7,3.9c0,0.1-0.1,0.2-0.2,0.2c-0.1,0-0.2,0-0.3,0
				c0,0-0.1,0-0.1-0.1c0,0-0.1-0.1-0.1-0.1l-1.1-4.6l0.2,0l-1.5,3.3c0,0.1-0.1,0.1-0.2,0.2c-0.1,0-0.2,0-0.2,0
				c-0.1,0-0.1-0.1-0.2-0.2c0-0.1,0-0.2,0-0.2L31.3,5c0-0.1,0.1-0.2,0.2-0.2s0.2,0,0.3,0c0,0,0.1,0.1,0.1,0.1C32,4.9,32,5,32,5
				l1.1,4.5l-0.1,0l1.4-3.2c0-0.1,0.1-0.1,0.2-0.2C34.7,6.1,34.8,6.1,34.8,6.2z"/>
			<path d="M35.8,12.9c-0.1-0.1-0.1-0.2-0.1-0.3c0-0.1,0-0.2,0.1-0.3l2.9-3.1l0.5,0.5l-2.9,3.1C36.2,13,36.1,13,36,13
				C35.9,13,35.9,13,35.8,12.9z M37.5,8.7c-0.1-0.1-0.1-0.1-0.1-0.2c0-0.1,0-0.2,0.1-0.3c0.1-0.1,0.1-0.1,0.2-0.1
				c0.1,0,0.2,0,0.2,0.1l2.3,2.2c0.1,0.1,0.1,0.1,0.1,0.2c0,0.1,0,0.2-0.1,0.2C40.2,11,40.2,11,40.1,11c-0.1,0-0.2,0-0.2-0.1
				L37.5,8.7z"/>
			<path d="M42.5,13.3l1.2,2.1c0,0.1,0.1,0.2,0,0.3c0,0.1-0.1,0.2-0.2,0.2s-0.2,0.1-0.3,0c-0.1,0-0.2-0.1-0.2-0.2L42,13.9l0.1,0
				l-1.4,0.8l0-0.1l0.9,1.6c0,0.1,0.1,0.2,0,0.3c0,0.1-0.1,0.2-0.2,0.2c-0.1,0-0.2,0.1-0.3,0c-0.1,0-0.2-0.1-0.2-0.2l-0.9-1.5l0.1,0
				L39,15.7l0-0.1l1,1.8c0,0.1,0.1,0.2,0,0.3s-0.1,0.2-0.2,0.2c-0.1,0-0.2,0.1-0.3,0c-0.1,0-0.2-0.1-0.2-0.2l-1.2-2.1
				c0-0.1-0.1-0.2,0-0.3c0-0.1,0.1-0.2,0.2-0.2l3.6-2.1c0.1-0.1,0.2-0.1,0.3,0C42.3,13.1,42.4,13.2,42.5,13.3z"/>
		</g>
	</g>
</g>
</svg>
